<svg width="32" height="32" viewBox="0 0 32 32" fill="none" xmlns="http://www.w3.org/2000/svg">
<rect width="32" height="32" rx="16" fill="url(#paint0_linear_446_849)"/>
<path d="M7.99459 12.3485L11.6682 13.4091L15.706 10.4766L9.91126 10.6427C9.85452 10.6458 9.79953 10.6634 9.75154 10.6938L7.91793 11.748C7.86089 11.7796 7.81464 11.8275 7.78518 11.8857C7.75571 11.9439 7.74437 12.0095 7.75262 12.0742C7.76088 12.1389 7.78835 12.1996 7.83149 12.2485C7.87463 12.2974 7.93145 12.3322 7.99459 12.3485V12.3485Z" fill="white"/>
<path d="M26.054 9.06449L22.029 8.1956C21.6905 8.12211 21.3401 8.1223 21.0017 8.19616C20.6633 8.27002 20.3447 8.41581 20.0676 8.62365L7.90953 17.4595L4.98981 17.3317C4.82257 17.326 4.65777 17.373 4.51868 17.466C4.37959 17.5591 4.27323 17.6934 4.21463 17.8502C4.15603 18.0069 4.14815 18.1781 4.19209 18.3396C4.23603 18.501 4.32958 18.6446 4.45953 18.75L7.30259 21.0053C7.34939 21.0431 7.4051 21.0682 7.46439 21.0783C7.52368 21.0883 7.58455 21.083 7.6412 21.0628C8.45259 20.7498 11.4745 19.1462 15.0459 17.1848L15.7615 24.5384C15.7675 24.6021 15.7909 24.6629 15.829 24.7143C15.8671 24.7657 15.9185 24.8057 15.9777 24.83C16.0368 24.8543 16.1015 24.8621 16.1648 24.8523C16.228 24.8426 16.2874 24.8158 16.3365 24.7748L17.9337 23.4459C18.0211 23.3725 18.0799 23.2708 18.0998 23.1584L19.614 14.6675C22.1695 13.2492 24.6101 11.8756 26.3287 10.9045C26.5071 10.8074 26.6513 10.6579 26.7418 10.4762C26.8323 10.2944 26.8648 10.0892 26.8348 9.88841C26.8048 9.68759 26.7138 9.50085 26.5742 9.35347C26.4345 9.20609 26.2529 9.10521 26.054 9.06449V9.06449Z" fill="white"/>
<defs>
<linearGradient id="paint0_linear_446_849" x1="2.02097e-07" y1="27.5" x2="26" y2="5" gradientUnits="userSpaceOnUse">
<stop stop-color="#F9453D"/>
<stop offset="1" stop-color="#FF921D"/>
</linearGradient>
</defs>
</svg>
